# xmcd
#
# Track frame offsets:
# 150
# 20912
# 34382
# 48302
# 64262
# 76860
# 94462
# 108070
# 127990
# 142775
# 161992
# 176670
# 194550
#
# Disc length: 2816 seconds
#
#
# Revision: 0
# Processed by: cddbd v1.5.1PL2 Copyright (c) Steve Scherf et al.
# Submitted via: FreeRIP 2.943 
#
DISCID=b50afe0d
DTITLE=Andre and Adriano - A giripoca vai pia
DYEAR=1900
DGENRE=Country
TTITLE0=Me de uma chance
TTITLE1=Vira e mexe
TTITLE2=Agua de coco
TTITLE3=So por prazer
TTITLE4=Coracao sabe de tudo
TTITLE5=Olha eu aqui
TTITLE6=A 200 por hora
TTITLE7=A giripoca vai pia
TTITLE8=Dose de paixao
TTITLE9=Faltando um pedaco
TTITLE10=Feitico de amor
TTITLE11=Beijo de batom
TTITLE12=Paixao de peao
EXTD=
EXTT0=
EXTT1=
EXTT2=
EXTT3=
EXTT4=
EXTT5=
EXTT6=
EXTT7=
EXTT8=
EXTT9=
EXTT10=
EXTT11=
EXTT12=
PLAYORDER=
